<svg width="40" height="40" viewBox="0 0 40 40" fill="none" xmlns="http://www.w3.org/2000/svg">
<g clip-path="url(#clip0_19407_17964)">
<g filter="url(#filter0_d_19407_17964)">
<path d="M24.7474 6.58594L24.7474 23.2826H10.4307C6.98073 23.2826 4.16406 26.0993 4.16406 29.5493V13.0693C4.16406 11.0859 5.38073 9.31927 7.23073 8.61927L20.4641 3.61927C22.5307 2.8526 24.7474 4.36927 24.7474 6.58594ZM37.5957 23.2826V26.7159C37.5957 27.6326 36.8624 28.3826 35.9291 28.4159H32.6624C30.8624 28.4159 29.2124 27.0993 29.0624 25.2993C28.9624 24.2493 29.3624 23.2659 30.0624 22.5826C30.6791 21.9493 31.5291 21.5826 32.4624 21.5826H35.9291C36.8624 21.6159 37.5957 22.3659 37.5957 23.2826Z" fill="url(#paint0_linear_19407_17964)"/>
<path d="M32.4619 22.083H35.9229C36.5883 22.1127 37.0955 22.6456 37.0957 23.2822V26.7158C37.0957 27.3563 36.5824 27.892 35.9111 27.916H32.6621C31.0828 27.9159 29.6858 26.761 29.5605 25.2578V25.252L29.5488 25.085C29.5204 24.3115 29.809 23.5899 30.3027 23.0527L30.4121 22.9404L30.4209 22.9316C30.9427 22.3958 31.6628 22.0831 32.4619 22.083ZM20.6377 4.08789C22.3821 3.44077 24.2471 4.72225 24.2471 6.58594V22.7822H10.4307C7.99748 22.7822 5.85679 24.0793 4.66406 26.0166V13.0693C4.66406 11.4038 5.62123 9.9107 7.10449 9.21484L7.40723 9.08691L20.6377 4.08789Z" stroke="url(#paint1_linear_19407_17964)"/>
</g>
<g filter="url(#filter1_d_19407_17964)">
<mask id="path-3-inside-1_19407_17964" fill="white">
<path d="M29.5645 12.916C33.0143 12.9162 35.831 15.7328 35.8311 19.1826V21.583H32.4639C31.5306 21.5831 30.6811 21.9497 30.0645 22.583C29.3645 23.2663 28.9645 24.2498 29.0645 25.2998C29.2147 27.0996 30.8642 28.416 32.6641 28.416H35.8311V30.3994C35.831 33.8493 33.0143 36.6658 29.5645 36.666H10.4307C6.98072 36.666 4.1641 33.8494 4.16406 30.3994V19.1826C4.1641 15.7327 6.98072 12.9161 10.4307 12.916H29.5645ZM10.748 20C10.0647 20 9.49805 20.5667 9.49805 21.25C9.49805 21.9333 10.0647 22.5 10.748 22.5H22.415C23.0982 22.4998 23.665 21.9332 23.665 21.25C23.665 20.5668 23.0982 20.0002 22.415 20H10.748Z"/>
</mask>
<path d="M29.5645 12.916C33.0143 12.9162 35.831 15.7328 35.8311 19.1826V21.583H32.4639C31.5306 21.5831 30.6811 21.9497 30.0645 22.583C29.3645 23.2663 28.9645 24.2498 29.0645 25.2998C29.2147 27.0996 30.8642 28.416 32.6641 28.416H35.8311V30.3994C35.831 33.8493 33.0143 36.6658 29.5645 36.666H10.4307C6.98072 36.666 4.1641 33.8494 4.16406 30.3994V19.1826C4.1641 15.7327 6.98072 12.9161 10.4307 12.916H29.5645ZM10.748 20C10.0647 20 9.49805 20.5667 9.49805 21.25C9.49805 21.9333 10.0647 22.5 10.748 22.5H22.415C23.0982 22.4998 23.665 21.9332 23.665 21.25C23.665 20.5668 23.0982 20.0002 22.415 20H10.748Z" fill="url(#paint2_linear_19407_17964)"/>
<path d="M29.5645 12.916L29.5645 11.916H29.5645V12.916ZM35.8311 19.1826H36.8311V19.1826L35.8311 19.1826ZM35.8311 21.583V22.583H36.8311V21.583H35.8311ZM32.4639 21.583V20.583H32.4638L32.4639 21.583ZM30.0645 22.583L30.763 23.2986L30.7721 23.2897L30.7809 23.2806L30.0645 22.583ZM29.0645 25.2998L30.0611 25.2166L30.0599 25.205L29.0645 25.2998ZM35.8311 28.416H36.8311V27.416H35.8311V28.416ZM35.8311 30.3994L36.8311 30.3994V30.3994H35.8311ZM29.5645 36.666V37.666H29.5645L29.5645 36.666ZM10.4307 36.666L10.4307 37.666H10.4307V36.666ZM4.16406 30.3994H3.16406V30.3994L4.16406 30.3994ZM4.16406 19.1826L3.16406 19.1826V19.1826H4.16406ZM10.4307 12.916V11.916H10.4307L10.4307 12.916ZM9.49805 21.25H8.49805V21.25L9.49805 21.25ZM22.415 22.5V23.5H22.4153L22.415 22.5ZM23.665 21.25L24.665 21.25V21.25H23.665ZM22.415 20L22.4153 19H22.415V20ZM29.5645 12.916L29.5644 13.916C32.462 13.9162 34.831 16.2851 34.8311 19.1826L35.8311 19.1826L36.8311 19.1826C36.831 15.1804 33.5665 11.9163 29.5645 11.916L29.5645 12.916ZM35.8311 19.1826H34.8311V21.583H35.8311H36.8311V19.1826H35.8311ZM35.8311 21.583V20.583H32.4639V21.583V22.583H35.8311V21.583ZM32.4639 21.583L32.4638 20.583C31.2625 20.5831 30.1541 21.0575 29.348 21.8854L30.0645 22.583L30.7809 23.2806C31.2081 22.8419 31.7987 22.583 32.4639 22.583L32.4639 21.583ZM30.0645 22.583L29.3659 21.8674C28.4606 22.7512 27.9388 24.0283 28.069 25.3946L29.0645 25.2998L30.0599 25.205C29.9901 24.4714 30.2683 23.7815 30.763 23.2986L30.0645 22.583ZM29.0645 25.2998L28.0679 25.383C28.2677 27.7759 30.4229 29.416 32.6641 29.416V28.416V27.416C31.3055 27.416 30.1617 26.4232 30.061 25.2166L29.0645 25.2998ZM32.6641 28.416V29.416H35.8311V28.416V27.416H32.6641V28.416ZM35.8311 28.416H34.8311V30.3994H35.8311H36.8311V28.416H35.8311ZM35.8311 30.3994L34.8311 30.3994C34.831 33.2969 32.462 35.6658 29.5644 35.666L29.5645 36.666L29.5645 37.666C33.5665 37.6658 36.831 34.4016 36.8311 30.3994L35.8311 30.3994ZM29.5645 36.666V35.666H10.4307V36.666V37.666H29.5645V36.666ZM10.4307 36.666L10.4307 35.666C7.533 35.666 5.16409 33.2971 5.16406 30.3994L4.16406 30.3994L3.16406 30.3994C3.1641 34.4016 6.42843 37.666 10.4307 37.666L10.4307 36.666ZM4.16406 30.3994H5.16406V19.1826H4.16406H3.16406V30.3994H4.16406ZM4.16406 19.1826L5.16406 19.1826C5.16409 16.285 7.533 13.916 10.4307 13.916L10.4307 12.916L10.4307 11.916C6.42843 11.9161 3.1641 15.1804 3.16406 19.1826L4.16406 19.1826ZM10.4307 12.916V13.916H29.5645V12.916V11.916H10.4307V12.916ZM10.748 20V19C9.51243 19 8.49805 20.0144 8.49805 21.25H9.49805H10.498C10.498 21.1897 10.5226 21.1271 10.5739 21.0759C10.6252 21.0246 10.6878 21 10.748 21V20ZM9.49805 21.25L8.49805 21.25C8.49805 22.4856 9.51243 23.5 10.748 23.5V22.5V21.5C10.6878 21.5 10.6252 21.4754 10.5739 21.4241C10.5226 21.3729 10.498 21.3103 10.498 21.25L9.49805 21.25ZM10.748 22.5V23.5H22.415V22.5V21.5H10.748V22.5ZM22.415 22.5L22.4153 23.5C23.6503 23.4997 24.665 22.4858 24.665 21.25L23.665 21.25L22.665 21.25C22.665 21.3101 22.6405 21.3726 22.5892 21.424C22.5378 21.4754 22.4751 21.5 22.4148 21.5L22.415 22.5ZM23.665 21.25H24.665C24.665 20.0142 23.6503 19.0003 22.4153 19L22.415 20L22.4148 21C22.4751 21 22.5378 21.0246 22.5892 21.076C22.6405 21.1274 22.665 21.1899 22.665 21.25H23.665ZM22.415 20V19H10.748V20V21H22.415V20Z" fill="url(#paint3_linear_19407_17964)" mask="url(#path-3-inside-1_19407_17964)"/>
</g>
</g>
<defs>
<filter id="filter0_d_19407_17964" x="-25.8359" y="-20.582" width="93.4336" height="86.1313" filterUnits="userSpaceOnUse" color-interpolation-filters="sRGB">
<feFlood flood-opacity="0" result="BackgroundImageFix"/>
<feColorMatrix in="SourceAlpha" type="matrix" values="0 0 0 0 0 0 0 0 0 0 0 0 0 0 0 0 0 0 127 0" result="hardAlpha"/>
<feOffset dy="6"/>
<feGaussianBlur stdDeviation="15"/>
<feComposite in2="hardAlpha" operator="out"/>
<feColorMatrix type="matrix" values="0 0 0 0 0.907682 0 0 0 0 0.281943 0 0 0 0 0.108866 0 0 0 0.35 0"/>
<feBlend mode="normal" in2="BackgroundImageFix" result="effect1_dropShadow_19407_17964"/>
<feBlend mode="normal" in="SourceGraphic" in2="effect1_dropShadow_19407_17964" result="shape"/>
</filter>
<filter id="filter1_d_19407_17964" x="-25.8359" y="-11.084" width="91.668" height="83.75" filterUnits="userSpaceOnUse" color-interpolation-filters="sRGB">
<feFlood flood-opacity="0" result="BackgroundImageFix"/>
<feColorMatrix in="SourceAlpha" type="matrix" values="0 0 0 0 0 0 0 0 0 0 0 0 0 0 0 0 0 0 127 0" result="hardAlpha"/>
<feOffset dy="6"/>
<feGaussianBlur stdDeviation="15"/>
<feComposite in2="hardAlpha" operator="out"/>
<feColorMatrix type="matrix" values="0 0 0 0 0.907682 0 0 0 0 0.281943 0 0 0 0 0.108866 0 0 0 0.35 0"/>
<feBlend mode="normal" in2="BackgroundImageFix" result="effect1_dropShadow_19407_17964"/>
<feBlend mode="normal" in="SourceGraphic" in2="effect1_dropShadow_19407_17964" result="shape"/>
</filter>
<linearGradient id="paint0_linear_19407_17964" x1="20.8799" y1="3.41797" x2="20.8799" y2="29.5493" gradientUnits="userSpaceOnUse">
<stop stop-color="#FFCC25"/>
<stop offset="1" stop-color="#FF8F0E"/>
</linearGradient>
<linearGradient id="paint1_linear_19407_17964" x1="20.8799" y1="3.41797" x2="20.8799" y2="29.5493" gradientUnits="userSpaceOnUse">
<stop stop-color="#FFF68C"/>
<stop offset="1" stop-color="#FFC37F"/>
</linearGradient>
<linearGradient id="paint2_linear_19407_17964" x1="19.9976" y1="12.916" x2="19.9976" y2="36.666" gradientUnits="userSpaceOnUse">
<stop stop-color="#FFCC25"/>
<stop offset="1" stop-color="#FF8F0E"/>
</linearGradient>
<linearGradient id="paint3_linear_19407_17964" x1="19.9976" y1="12.916" x2="19.9976" y2="36.666" gradientUnits="userSpaceOnUse">
<stop stop-color="#FFF68C"/>
<stop offset="1" stop-color="#FFC37F"/>
</linearGradient>
<clipPath id="clip0_19407_17964">
<rect width="40" height="40" fill="white"/>
</clipPath>
</defs>
</svg>
