<svg width="112" height="112" viewBox="0 0 112 112" fill="none" xmlns="http://www.w3.org/2000/svg">
<circle cx="54.9219" cy="53.5238" r="44" fill="url(#paint0_linear_19478_34298)"/>
<path d="M87.9219 53.5238C87.9219 71.7492 73.1473 86.5238 54.9219 86.5238C36.6965 86.5238 21.9219 71.7492 21.9219 53.5238C21.9219 35.2984 36.6965 20.5238 54.9219 20.5238C73.1473 20.5238 87.9219 35.2984 87.9219 53.5238Z" fill="url(#paint1_linear_19478_34298)"/>
<g filter="url(#filter0_f_19478_34298)">
<path d="M55.7939 20C75.5621 20.0002 91.5869 36.0258 91.5869 55.7939C91.5868 75.562 75.562 91.5868 55.7939 91.5869C36.0258 91.5869 20.0002 75.5621 20 55.7939C20 36.0257 36.0257 20 55.7939 20ZM55.793 25.6084C39.1222 25.6086 25.6084 39.1231 25.6084 55.7939C25.6086 72.4646 39.1223 85.9792 55.793 85.9795C72.4638 85.9795 85.9783 72.4647 85.9785 55.7939C85.9785 39.123 72.4639 25.6084 55.793 25.6084Z" fill="url(#paint2_linear_19478_34298)" fill-opacity="0.6"/>
</g>
<path d="M54.492 25.0239L57.6089 21.3573H51.375L54.492 25.0239Z" fill="#B1B1B1"/>
<path d="M54.367 82.1586L57.4839 85.8252H51.25L54.367 82.1586Z" fill="#E6E6E6"/>
<path d="M83.9219 52.9683L87.5885 49.8513L87.5885 56.0852L83.9219 52.9683Z" fill="#D3D3D3"/>
<path d="M25.8125 52.9683L22.1458 49.8513L22.1458 56.0852L25.8125 52.9683Z" fill="#D3D3D3"/>
<path d="M54.8105 15.5238C75.7359 15.5238 92.6991 32.4871 92.6992 53.4125C92.6992 74.3379 75.736 91.3011 54.8105 91.3011C33.8852 91.301 16.9219 74.3379 16.9219 53.4125C16.922 32.4872 33.8853 15.5239 54.8105 15.5238ZM54.8105 21.4603C37.1638 21.4603 22.8575 35.7657 22.8574 53.4125C22.8574 71.0593 37.1637 85.3646 54.8105 85.3646C72.4572 85.3644 86.7627 71.0592 86.7627 53.4125C86.7627 35.7658 72.4572 21.4605 54.8105 21.4603Z" fill="url(#paint3_linear_19478_34298)"/>
<circle cx="54.9219" cy="53.5238" r="44" fill="url(#paint4_linear_19478_34298)"/>
<path d="M87.9219 53.5238C87.9219 71.7492 73.1473 86.5238 54.9219 86.5238C36.6965 86.5238 21.9219 71.7492 21.9219 53.5238C21.9219 35.2984 36.6965 20.5238 54.9219 20.5238C73.1473 20.5238 87.9219 35.2984 87.9219 53.5238Z" fill="url(#paint5_linear_19478_34298)"/>
<path d="M54.8105 15.5238C75.7359 15.5238 92.6991 32.4871 92.6992 53.4125C92.6992 74.3379 75.736 91.3011 54.8105 91.3011C33.8852 91.301 16.9219 74.3379 16.9219 53.4125C16.922 32.4872 33.8853 15.5239 54.8105 15.5238ZM54.4902 25.0238L51.5967 21.6205C36.3938 23.1389 24.3311 35.3131 22.9844 50.5658L25.8105 52.9681L22.9219 55.4232C23.8968 71.1216 36.2057 83.7477 51.7646 85.2191L54.3672 82.1586L57.0264 85.2865C73.0056 84.1917 85.7537 71.3511 86.7031 55.3324L83.9219 52.9681L86.6426 50.6547C85.3179 35.1614 72.94 22.8245 57.4277 21.5668L54.4902 25.0238Z" fill="url(#paint6_linear_19478_34298)"/>
<g filter="url(#filter1_d_19478_34298)">
<path d="M54.2266 47.2382C54.2266 46.8525 54.5393 46.5398 54.925 46.5398C55.3107 46.5398 55.6234 46.8525 55.6234 47.2382V79.3652C55.6234 79.7509 55.3107 80.0636 54.925 80.0636C54.5393 80.0636 54.2266 79.7509 54.2266 79.3652V47.2382Z" fill="url(#paint7_linear_19478_34298)"/>
</g>
<g filter="url(#filter2_d_19478_34298)">
<rect x="57.1641" y="54.5945" width="4.42498" height="23.4591" rx="2.21249" transform="rotate(-135.16 57.1641 54.5945)" fill="url(#paint8_linear_19478_34298)"/>
</g>
<g filter="url(#filter3_d_19478_34298)">
<rect x="42.3672" y="44.0627" width="4.42498" height="13.1784" rx="2.21249" transform="rotate(-44.1285 42.3672 44.0627)" fill="url(#paint9_linear_19478_34298)"/>
</g>
<g filter="url(#filter4_d_19478_34298)">
<circle cx="55.16" cy="53.7618" r="5.2381" fill="url(#paint10_linear_19478_34298)"/>
</g>
<path d="M58.1914 53.5121C58.1914 55.1689 56.8483 56.5121 55.1914 56.5121C53.5346 56.5121 52.1914 55.1689 52.1914 53.5121C52.1914 51.8552 53.5346 50.5121 55.1914 50.5121C56.8483 50.5121 58.1914 51.8552 58.1914 53.5121Z" fill="url(#paint11_linear_19478_34298)"/>
<defs>
<filter id="filter0_f_19478_34298" x="0" y="0" width="111.586" height="111.587" filterUnits="userSpaceOnUse" color-interpolation-filters="sRGB">
<feFlood flood-opacity="0" result="BackgroundImageFix"/>
<feBlend mode="normal" in="SourceGraphic" in2="BackgroundImageFix" result="shape"/>
<feGaussianBlur stdDeviation="10" result="effect1_foregroundBlur_19478_34298"/>
</filter>
<filter id="filter1_d_19478_34298" x="50.2266" y="46.5398" width="9.39844" height="41.5238" filterUnits="userSpaceOnUse" color-interpolation-filters="sRGB">
<feFlood flood-opacity="0" result="BackgroundImageFix"/>
<feColorMatrix in="SourceAlpha" type="matrix" values="0 0 0 0 0 0 0 0 0 0 0 0 0 0 0 0 0 0 127 0" result="hardAlpha"/>
<feOffset dy="4"/>
<feGaussianBlur stdDeviation="2"/>
<feComposite in2="hardAlpha" operator="out"/>
<feColorMatrix type="matrix" values="0 0 0 0 0.310082 0 0 0 0 0.310082 0 0 0 0 0.310082 0 0 0 1 0"/>
<feBlend mode="normal" in2="BackgroundImageFix" result="effect1_dropShadow_19478_34298"/>
<feBlend mode="normal" in="SourceGraphic" in2="effect1_dropShadow_19478_34298" result="shape"/>
</filter>
<filter id="filter2_d_19478_34298" x="50.9414" y="35.7563" width="25.8477" height="25.9218" filterUnits="userSpaceOnUse" color-interpolation-filters="sRGB">
<feFlood flood-opacity="0" result="BackgroundImageFix"/>
<feColorMatrix in="SourceAlpha" type="matrix" values="0 0 0 0 0 0 0 0 0 0 0 0 0 0 0 0 0 0 127 0" result="hardAlpha"/>
<feOffset dy="4"/>
<feGaussianBlur stdDeviation="2"/>
<feComposite in2="hardAlpha" operator="out"/>
<feColorMatrix type="matrix" values="0 0 0 0 0.310082 0 0 0 0 0.310082 0 0 0 0 0.310082 0 0 0 1 0"/>
<feBlend mode="normal" in2="BackgroundImageFix" result="effect1_dropShadow_19478_34298"/>
<feBlend mode="normal" in="SourceGraphic" in2="effect1_dropShadow_19478_34298" result="shape"/>
</filter>
<filter id="filter3_d_19478_34298" x="39.2852" y="41.8978" width="18.5195" height="18.708" filterUnits="userSpaceOnUse" color-interpolation-filters="sRGB">
<feFlood flood-opacity="0" result="BackgroundImageFix"/>
<feColorMatrix in="SourceAlpha" type="matrix" values="0 0 0 0 0 0 0 0 0 0 0 0 0 0 0 0 0 0 127 0" result="hardAlpha"/>
<feOffset dy="4"/>
<feGaussianBlur stdDeviation="2"/>
<feComposite in2="hardAlpha" operator="out"/>
<feColorMatrix type="matrix" values="0 0 0 0 0.310082 0 0 0 0 0.310082 0 0 0 0 0.310082 0 0 0 1 0"/>
<feBlend mode="normal" in2="BackgroundImageFix" result="effect1_dropShadow_19478_34298"/>
<feBlend mode="normal" in="SourceGraphic" in2="effect1_dropShadow_19478_34298" result="shape"/>
</filter>
<filter id="filter4_d_19478_34298" x="45.9219" y="48.5237" width="18.4766" height="18.4762" filterUnits="userSpaceOnUse" color-interpolation-filters="sRGB">
<feFlood flood-opacity="0" result="BackgroundImageFix"/>
<feColorMatrix in="SourceAlpha" type="matrix" values="0 0 0 0 0 0 0 0 0 0 0 0 0 0 0 0 0 0 127 0" result="hardAlpha"/>
<feOffset dy="4"/>
<feGaussianBlur stdDeviation="2"/>
<feComposite in2="hardAlpha" operator="out"/>
<feColorMatrix type="matrix" values="0 0 0 0 0.451749 0 0 0 0 0.451749 0 0 0 0 0.451749 0 0 0 0.5 0"/>
<feBlend mode="normal" in2="BackgroundImageFix" result="effect1_dropShadow_19478_34298"/>
<feBlend mode="normal" in="SourceGraphic" in2="effect1_dropShadow_19478_34298" result="shape"/>
</filter>
<linearGradient id="paint0_linear_19478_34298" x1="54.9219" y1="9.5238" x2="54.9219" y2="97.5238" gradientUnits="userSpaceOnUse">
<stop stop-color="#F8F8F8"/>
<stop offset="1" stop-color="#D4D4D4"/>
</linearGradient>
<linearGradient id="paint1_linear_19478_34298" x1="54.9299" y1="20.5238" x2="54.9299" y2="86.5238" gradientUnits="userSpaceOnUse">
<stop stop-color="#A6A6A6"/>
<stop offset="1" stop-color="#CBCBCB"/>
</linearGradient>
<linearGradient id="paint2_linear_19478_34298" x1="55.7935" y1="20" x2="55.7935" y2="91.5869" gradientUnits="userSpaceOnUse">
<stop stop-color="#2C2C2C"/>
<stop offset="1" stop-color="#4D4D4D" stop-opacity="0"/>
</linearGradient>
<linearGradient id="paint3_linear_19478_34298" x1="54.8105" y1="15.5238" x2="54.8105" y2="91.3011" gradientUnits="userSpaceOnUse">
<stop stop-color="#BFBFBF"/>
<stop offset="1" stop-color="white"/>
</linearGradient>
<linearGradient id="paint4_linear_19478_34298" x1="54.9219" y1="9.5238" x2="54.9219" y2="97.5238" gradientUnits="userSpaceOnUse">
<stop stop-color="#B7B7B7"/>
<stop offset="1" stop-color="#787878"/>
</linearGradient>
<linearGradient id="paint5_linear_19478_34298" x1="54.9299" y1="20.5238" x2="54.9299" y2="86.5238" gradientUnits="userSpaceOnUse">
<stop stop-color="#404040"/>
<stop offset="1" stop-color="#939393"/>
</linearGradient>
<linearGradient id="paint6_linear_19478_34298" x1="54.8105" y1="15.5238" x2="54.8105" y2="91.3011" gradientUnits="userSpaceOnUse">
<stop stop-color="#808080"/>
<stop offset="1" stop-color="#DEDEDE"/>
</linearGradient>
<linearGradient id="paint7_linear_19478_34298" x1="54.9258" y1="80.5232" x2="54.9258" y2="52.0232" gradientUnits="userSpaceOnUse">
<stop stop-color="#D9D9D9"/>
<stop offset="1" stop-color="#B8B8B8"/>
</linearGradient>
<linearGradient id="paint8_linear_19478_34298" x1="60.1465" y1="77.8193" x2="60.2058" y2="56.6062" gradientUnits="userSpaceOnUse">
<stop stop-color="#D9D9D9"/>
<stop offset="1" stop-color="#B8B8B8"/>
</linearGradient>
<linearGradient id="paint9_linear_19478_34298" x1="44.5797" y1="44.0627" x2="44.5797" y2="57.2412" gradientUnits="userSpaceOnUse">
<stop stop-color="#D9D9D9"/>
<stop offset="1" stop-color="#B8B8B8"/>
</linearGradient>
<linearGradient id="paint10_linear_19478_34298" x1="55.16" y1="48.5237" x2="55.16" y2="58.9999" gradientUnits="userSpaceOnUse">
<stop stop-color="white"/>
<stop offset="1" stop-color="#E2E2E2"/>
</linearGradient>
<linearGradient id="paint11_linear_19478_34298" x1="54.1641" y1="50.0807" x2="54.1641" y2="56.0807" gradientUnits="userSpaceOnUse">
<stop stop-color="#E1E1E1"/>
<stop offset="1" stop-color="white"/>
</linearGradient>
</defs>
</svg>
